HIERARCHY
ROOT Hips
{
	OFFSET 0.000000 97.167313 0.000000
	CHANNELS 6 Xposition Yposition Zposition Xrotation Yrotation Zrotation
	JOINT Spine
	{
		OFFSET 0.000000 13.784798 0.064400
		CHANNELS 3 Xrotation Yrotation Zrotation
		JOINT Spine1
		{
			OFFSET 0.000000 12.037903 0.404700
			CHANNELS 3 Xrotation Yrotation Zrotation
			JOINT Spine2
			{
				OFFSET 0.000000 17.795601 0.420200
				CHANNELS 3 Xrotation Yrotation Zrotation
				JOINT Neck
				{
					OFFSET 0.000000 39.131302 11.954600
					CHANNELS 3 Xrotation Yrotation Zrotation
					JOINT Head
					{
						OFFSET 0.000000 14.456192 15.627699
						CHANNELS 3 Xrotation Yrotation Zrotation
						JOINT HeadTop_End
						{
							OFFSET 0.000000 15.703506 7.603401
							CHANNELS 3 Xrotation Yrotation Zrotation
							End Site
							{
								OFFSET 0.000000 17.447403 0.000000
							}
						}
					}
				}
				JOINT LeftShoulder
				{
					OFFSET 17.399500 24.608795 1.168800
					CHANNELS 3 Xrotation Yrotation Zrotation
					JOINT LeftArm
					{
						OFFSET 18.980635 5.765305 1.818600
						CHANNELS 3 Xrotation Yrotation Zrotation
						JOINT LeftForeArm
						{
							OFFSET 49.290169 0.000000 0.000000
							CHANNELS 3 Xrotation Yrotation Zrotation
							JOINT LeftHand
							{
								OFFSET 31.562012 0.000000 0.000000
								CHANNELS 3 Xrotation Yrotation Zrotation
								JOINT LeftHandThumb1
								{
									OFFSET 6.133995 -4.388519 7.076070
									CHANNELS 3 Xrotation Yrotation Zrotation
									JOINT LeftHandThumb2
									{
										OFFSET 6.037666 -3.485840 3.485847
										CHANNELS 3 Xrotation Yrotation Zrotation
										JOINT LeftHandThumb3
										{
											OFFSET 6.496506 -3.750763 3.750761
											CHANNELS 3 Xrotation Yrotation Zrotation
											JOINT LeftHandThumb4
											{
												OFFSET 5.616882 -3.242905 3.242910
												CHANNELS 3 Xrotation Yrotation Zrotation
												End Site
												{
													OFFSET -1.254608 7.132141 0.375429
												}
											}
										}
									}
								}
								JOINT LeftHandPinky1
								{
									OFFSET 18.920792 -0.453171 -11.426712
									CHANNELS 3 Xrotation Yrotation Zrotation
									JOINT LeftHandPinky2
									{
										OFFSET 4.919586 0.000000 0.000000
										CHANNELS 3 Xrotation Yrotation Zrotation
										JOINT LeftHandPinky3
										{
											OFFSET 5.233047 0.000000 0.000000
											CHANNELS 3 Xrotation Yrotation Zrotation
											JOINT LeftHandPinky4
											{
												OFFSET 5.571716 0.000000 0.000000
												CHANNELS 3 Xrotation Yrotation Zrotation
												End Site
												{
													OFFSET -3.459808 4.342407 -0.466164
												}
											}
										}
									}
								}
								JOINT LeftHandRing1
								{
									OFFSET 22.726120 -0.094986 -6.500475
									CHANNELS 3 Xrotation Yrotation Zrotation
									JOINT LeftHandRing2
									{
										OFFSET 6.408615 0.000000 0.000000
										CHANNELS 3 Xrotation Yrotation Zrotation
										JOINT LeftHandRing3
										{
											OFFSET 6.150223 0.000000 0.000000
											CHANNELS 3 Xrotation Yrotation Zrotation
											JOINT LeftHandRing4
											{
												OFFSET 6.145386 0.000000 0.000000
												CHANNELS 3 Xrotation Yrotation Zrotation
												End Site
												{
													OFFSET -3.671402 4.923981 -0.202372
												}
											}
										}
									}
								}
								JOINT LeftHandMiddle1
								{
									OFFSET 23.373947 0.000000 0.000001
									CHANNELS 3 Xrotation Yrotation Zrotation
									JOINT LeftHandMiddle2
									{
										OFFSET 6.996567 0.000000 0.000000
										CHANNELS 3 Xrotation Yrotation Zrotation
										JOINT LeftHandMiddle3
										{
											OFFSET 7.015945 0.000000 0.000000
											CHANNELS 3 Xrotation Yrotation Zrotation
											JOINT LeftHandMiddle4
											{
												OFFSET 7.721573 0.000000 0.000000
												CHANNELS 3 Xrotation Yrotation Zrotation
												End Site
												{
													OFFSET -4.651108 6.158463 0.251582
												}
											}
										}
									}
								}
								JOINT LeftHandIndex1
								{
									OFFSET 21.310577 -0.490082 6.209344
									CHANNELS 3 Xrotation Yrotation Zrotation
									JOINT LeftHandIndex2
									{
										OFFSET 7.536453 0.000000 0.000000
										CHANNELS 3 Xrotation Yrotation Zrotation
										JOINT LeftHandIndex3
										{
											OFFSET 7.512344 0.000000 0.000000
											CHANNELS 3 Xrotation Yrotation Zrotation
											JOINT LeftHandIndex4
											{
												OFFSET 10.212402 0.000000 0.000001
												CHANNELS 3 Xrotation Yrotation Zrotation
												End Site
												{
													OFFSET -5.180801 8.690506 1.388433
												}
											}
										}
									}
								}
							}
						}
					}
				}
				JOINT RightShoulder
				{
					OFFSET -17.399500 24.608795 1.168800
					CHANNELS 3 Xrotation Yrotation Zrotation
					JOINT RightArm
					{
						OFFSET -18.980635 5.765305 1.818600
						CHANNELS 3 Xrotation Yrotation Zrotation
						JOINT RightForeArm
						{
							OFFSET -49.290169 0.000000 0.000000
							CHANNELS 3 Xrotation Yrotation Zrotation
							JOINT RightHand
							{
								OFFSET -31.562012 0.000000 0.000000
								CHANNELS 3 Xrotation Yrotation Zrotation
								JOINT RightHandThumb1
								{
									OFFSET -6.133995 -4.388519 7.076070
									CHANNELS 3 Xrotation Yrotation Zrotation
									JOINT RightHandThumb2
									{
										OFFSET -6.037666 -3.485840 3.485847
										CHANNELS 3 Xrotation Yrotation Zrotation
										JOINT RightHandThumb3
										{
											OFFSET -6.496506 -3.750763 3.750761
											CHANNELS 3 Xrotation Yrotation Zrotation
											JOINT RightHandThumb4
											{
												OFFSET -5.616882 -3.242905 3.242910
												CHANNELS 3 Xrotation Yrotation Zrotation
												End Site
												{
													OFFSET 1.254608 7.132141 0.375429
												}
											}
										}
									}
								}
								JOINT RightHandIndex1
								{
									OFFSET -21.310577 -0.490082 6.209344
									CHANNELS 3 Xrotation Yrotation Zrotation
									JOINT RightHandIndex2
									{
										OFFSET -7.536453 0.000000 0.000000
										CHANNELS 3 Xrotation Yrotation Zrotation
										JOINT RightHandIndex3
										{
											OFFSET -7.512344 0.000000 0.000000
											CHANNELS 3 Xrotation Yrotation Zrotation
											JOINT RightHandIndex4
											{
												OFFSET -10.212402 0.000000 0.000001
												CHANNELS 3 Xrotation Yrotation Zrotation
												End Site
												{
													OFFSET 5.180801 8.690506 1.388433
												}
											}
										}
									}
								}
								JOINT RightHandMiddle1
								{
									OFFSET -23.373947 0.000000 0.000001
									CHANNELS 3 Xrotation Yrotation Zrotation
									JOINT RightHandMiddle2
									{
										OFFSET -6.996567 0.000000 0.000000
										CHANNELS 3 Xrotation Yrotation Zrotation
										JOINT RightHandMiddle3
										{
											OFFSET -7.015945 0.000000 0.000000
											CHANNELS 3 Xrotation Yrotation Zrotation
											JOINT RightHandMiddle4
											{
												OFFSET -7.721573 0.000000 0.000000
												CHANNELS 3 Xrotation Yrotation Zrotation
												End Site
												{
													OFFSET 4.651108 6.158463 0.251582
												}
											}
										}
									}
								}
								JOINT RightHandRing1
								{
									OFFSET -22.726120 -0.094986 -6.500475
									CHANNELS 3 Xrotation Yrotation Zrotation
									JOINT RightHandRing2
									{
										OFFSET -6.408615 0.000000 0.000000
										CHANNELS 3 Xrotation Yrotation Zrotation
										JOINT RightHandRing3
										{
											OFFSET -6.150223 0.000000 0.000000
											CHANNELS 3 Xrotation Yrotation Zrotation
											JOINT RightHandRing4
											{
												OFFSET -6.145386 0.000000 0.000000
												CHANNELS 3 Xrotation Yrotation Zrotation
												End Site
												{
													OFFSET 3.671402 4.923981 -0.202372
												}
											}
										}
									}
								}
								JOINT RightHandPinky1
								{
									OFFSET -18.920792 -0.453171 -11.426712
									CHANNELS 3 Xrotation Yrotation Zrotation
									JOINT RightHandPinky2
									{
										OFFSET -4.919586 0.000000 0.000000
										CHANNELS 3 Xrotation Yrotation Zrotation
										JOINT RightHandPinky3
										{
											OFFSET -5.233047 0.000000 0.000000
											CHANNELS 3 Xrotation Yrotation Zrotation
											JOINT RightHandPinky4
											{
												OFFSET -5.571716 0.000000 0.000000
												CHANNELS 3 Xrotation Yrotation Zrotation
												End Site
												{
													OFFSET 3.459808 4.342407 -0.466164
												}
											}
										}
									}
								}
							}
						}
					}
				}
			}
		}
	}
	JOINT LeftUpLeg
	{
		OFFSET 19.899099 -7.885101 -3.429500
		CHANNELS 3 Xrotation Yrotation Zrotation
		JOINT LeftLeg
		{
			OFFSET 1.745560 -36.997807 10.304700
			CHANNELS 3 Xrotation Yrotation Zrotation
			JOINT LeftFoot
			{
				OFFSET -1.745558 -29.803308 -13.615400
				CHANNELS 3 Xrotation Yrotation Zrotation
				JOINT LeftToeBase
				{
					OFFSET 1.181900 -18.539904 15.226099
					CHANNELS 3 Xrotation Yrotation Zrotation
					JOINT LeftToe_End
					{
						OFFSET -0.863701 1.402801 16.534700
						CHANNELS 3 Xrotation Yrotation Zrotation
						End Site
						{
							OFFSET 0.000000 16.616566 0.000000
						}
					}
				}
			}
		}
	}
	JOINT RightUpLeg
	{
		OFFSET -19.899099 -7.885101 -3.429500
		CHANNELS 3 Xrotation Yrotation Zrotation
		JOINT RightLeg
		{
			OFFSET -1.745560 -36.997807 10.304700
			CHANNELS 3 Xrotation Yrotation Zrotation
			JOINT RightFoot
			{
				OFFSET 1.745558 -29.803308 -13.615400
				CHANNELS 3 Xrotation Yrotation Zrotation
				JOINT RightToeBase
				{
					OFFSET -1.181900 -18.539904 15.226099
					CHANNELS 3 Xrotation Yrotation Zrotation
					JOINT RightToe_End
					{
						OFFSET 0.863701 1.402801 16.534700
						CHANNELS 3 Xrotation Yrotation Zrotation
						End Site
						{
							OFFSET 0.000000 16.616566 0.000000
						}
					}
				}
			}
		}
	}
}
MOTION
Frames: 4
Frame Time: 0.033333
8.426711 95.256950 20.699995 0.810359 1.070654 1.866787 0.501831 -0.500713 -1.207701 -0.855874 -0.406608 -1.250286 -0.855488 -0.407524 -1.250075 -15.087500 -2.890563 5.983263 -8.978288 0.036071 -9.510162 -0.000002 -0.000000 -0.000001 -6.397517 -36.225933 -7.487381 5.834929 -9.558123 -74.382427 0.000041 -42.568812 -7.961997 -26.307860 -32.149977 12.561925 -7.471938 1.860688 -7.166898 30.987014 27.310505 -4.510899 83.254631 13.297950 -10.940310 0.000002 0.000001 0.000000 -12.869850 4.752729 -44.622159 0.026683 0.027489 -94.286732 0.004933 0.007734 -26.297186 0.000001 -0.000001 0.000001 -6.443314 23.132618 -75.906481 8.050466 3.340235 -68.559431 6.771119 8.412951 -40.137019 -0.000002 0.000001 0.000003 1.623329 16.580938 -84.691265 0.018010 0.022041 -72.884880 -1.296722 -0.092181 -19.943295 -0.000002 -0.000001 0.000011 -4.718941 11.382614 -75.804212 -0.816402 3.073993 -46.874666 -4.740631 0.379124 -78.699461 -0.000003 0.000003 0.000001 -9.760257 23.942347 23.345515 17.562670 28.250485 46.265188 0.000005 54.850340 14.313018 -1.576812 49.642249 -44.673327 9.347164 2.810550 -11.364502 16.169100 -43.265994 15.843587 32.491777 -44.566793 5.661116 0.000003 0.000001 -0.000005 17.076786 -0.396544 31.924342 -0.204388 -0.284220 112.811550 1.553156 -1.173016 33.344563 -0.000001 -0.000003 -0.000001 9.205479 -5.035895 102.738087 0.014978 -0.019207 61.018519 1.871330 0.346185 31.443770 -0.000002 -0.000000 -0.000004 5.569152 -8.935243 107.329115 0.547968 -0.005783 41.263738 0.739143 0.837847 51.122258 -0.000001 -0.000000 -0.000005 6.511227 -17.148228 98.228024 0.007406 -0.015752 43.845754 0.011229 -0.024781 57.754543 0.000000 -0.000002 0.000002 -8.068224 5.132444 -5.403043 6.102543 -7.650650 -0.243007 2.035597 -0.878246 5.343307 -0.359397 -1.379839 -0.238582 0.000000 -0.000000 0.000000 -2.582519 -7.202822 -0.696196 10.036140 -1.054180 1.386342 -8.201018 0.179812 -1.701363 -0.392104 -0.205910 0.136299 -0.000000 -0.000001 -0.000000 
8.549173 94.917664 20.725105 1.770782 1.456453 1.915986 0.563762 -0.496167 -0.920314 -1.235529 -0.408886 -1.079761 -1.235190 -0.409854 -1.079545 -19.212948 -2.880920 5.001303 -14.798329 -0.504211 -10.165499 0.000003 0.000000 -0.000000 -6.953355 -36.365963 -8.832111 7.751418 -8.055023 -73.836264 0.000017 -44.686267 -9.445349 -25.982975 -32.298530 14.739413 -7.471940 1.860686 -7.166896 30.987021 27.310498 -4.510894 83.254637 13.297947 -10.940314 0.000000 -0.000001 -0.000003 -12.347346 4.329873 -43.381888 0.027196 0.027412 -95.372561 0.004933 0.007737 -26.297186 -0.000001 0.000003 -0.000004 -6.443066 23.131020 -75.491253 8.313657 3.335686 -69.088866 6.771119 8.412952 -40.137012 -0.000000 0.000001 0.000005 1.623327 16.580940 -84.691272 0.018007 0.022036 -72.884880 -1.296722 -0.092186 -19.943293 0.000002 0.000002 0.000009 -4.718925 11.382583 -75.804192 -0.816405 3.073992 -46.874659 -4.740636 0.379118 -78.699461 -0.000000 0.000001 0.000002 -9.887558 23.217314 23.839899 19.764725 28.125297 45.071349 -0.000022 56.722081 14.414295 -1.544071 48.835480 -44.089670 9.347167 2.810549 -11.364505 16.169110 -43.265997 15.843583 32.491773 -44.566793 5.661117 0.000002 -0.000001 0.000001 17.076789 -0.396544 31.924345 -0.204384 -0.284213 112.811550 1.553154 -1.173012 33.344560 -0.000001 0.000001 -0.000001 9.205484 -5.035896 102.738080 0.014976 -0.019205 61.018519 1.871331 0.346182 31.443773 0.000001 0.000002 -0.000008 5.569154 -8.935242 107.329108 0.547969 -0.005786 41.263738 0.739143 0.837847 51.122252 -0.000000 -0.000000 -0.000005 6.511225 -17.148230 98.228024 0.007406 -0.015759 43.845747 0.011231 -0.024779 57.754543 0.000001 -0.000001 -0.000001 -9.706621 4.337520 -5.680907 7.116000 -7.155445 0.054859 1.670686 -0.837641 5.240592 -0.359397 -1.379839 -0.238582 0.000000 -0.000000 0.000000 -4.045821 -7.005582 -0.995674 11.207312 -1.525608 1.445231 -8.883853 0.135319 -1.503871 -0.392175 -0.205941 0.137280 0.000000 -0.000001 -0.000000 
8.692190 95.123817 20.610794 1.711282 1.298860 1.501706 0.901359 -0.207484 -0.710726 -1.151437 -0.183277 -0.927113 -1.151390 -0.184160 -0.926954 -21.264752 -2.974792 4.888068 -18.014469 -0.522454 -10.970430 0.000003 -0.000000 -0.000000 -7.122472 -36.454653 -9.332700 7.954349 -7.445772 -74.409365 0.000013 -44.623654 -9.397020 -25.400125 -32.403333 15.669198 -7.471938 1.860689 -7.166900 30.987021 27.310503 -4.510891 83.254631 13.297948 -10.940310 0.000002 0.000002 0.000002 -11.889241 3.983121 -42.331180 0.027598 0.027382 -96.291877 0.004935 0.007743 -26.297188 0.000002 -0.000002 0.000003 -6.443060 23.130497 -75.139621 8.536939 3.328258 -69.537002 6.771121 8.412956 -40.137019 0.000000 -0.000001 0.000005 1.623327 16.580940 -84.691272 0.018005 0.022039 -72.884874 -1.296720 -0.092181 -19.943293 0.000001 -0.000001 0.000004 -4.718883 11.382553 -75.804158 -0.816403 3.073993 -46.874666 -4.740638 0.379122 -78.699461 -0.000001 -0.000000 -0.000001 -9.810623 23.383424 23.378047 20.531605 28.577392 45.022937 0.000025 56.586526 13.985816 -2.236950 49.621113 -43.382944 9.347169 2.810551 -11.364501 16.169107 -43.265994 15.843590 32.491773 -44.566790 5.661116 0.000001 0.000002 0.000004 17.076789 -0.396547 31.924342 -0.204381 -0.284216 112.811550 1.553151 -1.173014 33.344560 -0.000004 -0.000003 -0.000001 9.205481 -5.035897 102.738080 0.014976 -0.019205 61.018526 1.871331 0.346184 31.443773 0.000002 0.000001 -0.000008 5.569154 -8.935242 107.329108 0.547968 -0.005782 41.263738 0.739143 0.837846 51.122258 -0.000000 0.000001 -0.000005 6.511226 -17.148230 98.228031 0.007405 -0.015758 43.845747 0.011230 -0.024781 57.754543 -0.000001 -0.000001 -0.000001 -9.567186 4.988452 -5.344775 6.863563 -7.673001 -0.043949 1.890108 -0.872402 5.475452 -0.359397 -1.379838 -0.238582 0.000000 0.000000 0.000000 -3.550864 -6.787952 -0.545824 9.991050 -1.635996 1.315577 -8.041892 0.115243 -1.357746 -0.392798 -0.205969 0.137466 -0.000000 -0.000001 0.000000 
8.743492 95.588188 20.608112 1.953967 0.908343 1.362335 0.603878 0.131426 -0.739084 -1.252100 0.084630 -0.947953 -1.252313 0.083740 -0.947944 -22.569324 -3.078650 4.748783 -20.464838 -0.719906 -11.440010 -0.000000 0.000000 -0.000000 -6.900194 -35.285177 -9.256361 7.460187 -6.713623 -75.869127 0.000012 -43.221987 -9.206239 -23.413573 -32.598417 15.316528 -7.471938 1.860684 -7.166897 30.987021 27.310501 -4.510898 83.254631 13.297953 -10.940311 0.000003 0.000000 0.000002 -11.511571 3.712756 -41.487966 0.027936 0.027363 -97.029237 0.004934 0.007735 -26.297191 0.000001 -0.000003 0.000001 -6.443218 23.130565 -74.857521 8.716273 3.319917 -69.896270 6.771121 8.412953 -40.137019 -0.000000 -0.000001 0.000007 1.623326 16.580938 -84.691265 0.018006 0.022036 -72.884874 -1.296725 -0.092183 -19.943285 0.000002 -0.000003 0.000006 -4.718857 11.382504 -75.804096 -0.816401 3.073994 -46.874656 -4.740638 0.379123 -78.699455 -0.000003 0.000001 -0.000001 -9.841709 23.405025 23.349775 20.814354 28.403980 45.591240 -0.000011 55.831602 14.122999 -2.566884 50.601436 -42.292859 9.347167 2.810549 -11.364502 16.169109 -43.265997 15.843592 32.491784 -44.566793 5.661121 0.000004 -0.000000 -0.000004 17.076788 -0.396545 31.924338 -0.204385 -0.284217 112.811557 1.553155 -1.173012 33.344560 -0.000003 -0.000006 -0.000002 9.205483 -5.035897 102.738080 0.014975 -0.019204 61.018519 1.871332 0.346186 31.443770 0.000000 -0.000001 -0.000004 5.569154 -8.935244 107.329108 0.547969 -0.005784 41.263738 0.739142 0.837848 51.122262 -0.000001 -0.000000 -0.000003 6.511224 -17.148233 98.228031 0.007407 -0.015758 43.845754 0.011232 -0.024784 57.754543 0.000000 -0.000001 0.000004 -8.866383 5.931196 -5.111478 5.026820 -8.343663 -0.522458 2.819414 -0.852113 5.764511 -0.359397 -1.379838 -0.238582 0.000000 -0.000000 0.000000 -3.083277 -6.366299 -0.204423 8.043392 -1.709220 0.975661 -6.774895 0.083045 -1.154657 -0.393354 -0.206005 0.138053 -0.000000 -0.000001 0.000000 
